<?xml version="1.0" encoding="UTF-8" standalone="no"?><!DOCTYPE svg PUBLIC "-//W3C//DTD SVG 1.1//EN" "http://www.w3.org/Graphics/SVG/1.1/DTD/svg11.dtd"><svg width="100%" height="100%" viewBox="0 0 6037 2248" version="1.1" xmlns="http://www.w3.org/2000/svg" xmlns:xlink="http://www.w3.org/1999/xlink" xml:space="preserve" xmlns:serif="http://www.serif.com/" style="fill-rule:evenodd;clip-rule:evenodd;stroke-linejoin:round;stroke-miterlimit:2;"><rect id="Page-1" serif:id="Page 1" x="0" y="0" width="6036.111" height="2247.403" style="fill:none;"/><g id="Livello-1" serif:id="Livello 1"><path d="M5431.424,1776.161l-229.833,0l-278.029,-569.062l0,569.062l-283.617,0l0,-1304.941l231.7,-0l278.042,630.25l0,-630.25l281.737,0l0,1304.941Zm-1453.212,0l-176.083,-717.337l-170.533,717.337l-305.858,0l331.812,-1304.941l292.871,-0l329.942,1304.941l-302.15,0Zm-856.358,-1063.962l-224.308,0l0,1063.962l-285.437,0l0,-1063.962l-224.292,0l0,-240.979l734.037,0l0,240.979Zm-1115.871,1063.962l-285.45,0l0,-1304.941l285.45,-0l0,1304.941Zm-667.275,-1063.962l-224.267,0l0,1063.962l-285.475,0l0,-1063.962l-224.279,0l0,-240.979l734.021,0l0,240.979Zm-1338.708,1535.203l6036.111,0l0,-2247.403l-6036.111,0l0,2247.403Z" style="fill:#fff;fill-rule:nonzero;"/></g></svg>